<svg xmlns="http://www.w3.org/2000/svg" width="64" height="64"><path fill="#B02DFF" d="m45.688 41.867 3.312.008 3.313-.008C55 42 55 42 56 43c.099 1.998.13 4 .125 6l.008 3.313C56 55 56 55 55 56c-1.998.099-4 .13-6 .125l-3.313.008C43 56 43 56 42 55c-.099-1.998-.13-4-.125-6l-.008-3.313c.179-3.613.207-3.641 3.82-3.82ZM44 46c-.333 3-.333 3 0 6 1.885 2.316 1.885 2.316 5 2.25 3.115.066 3.115.066 5-2.25.333-3 .333-3 0-6-1.885-2.316-1.885-2.316-5-2.25-3.115-.066-3.115-.066-5 2.25ZM28.688 41.867l3.312.008 3.313-.008C38 42 38 42 39 43c.099 1.998.13 4 .125 6l.008 3.313C39 55 39 55 38 56c-1.998.099-4 .13-6 .125l-3.313.008C26 56 26 56 25 55c-.099-1.998-.13-4-.125-6l-.008-3.313c.179-3.613.207-3.641 3.82-3.82ZM27 46c-.333 3-.333 3 0 6 1.885 2.316 1.885 2.316 5 2.25 3.115.066 3.115.066 5-2.25.333-3 .333-3 0-6-1.885-2.316-1.885-2.316-5-2.25-3.115-.066-3.115-.066-5 2.25ZM11.688 41.867l3.312.008 3.313-.008C21 42 21 42 22 43c.099 1.998.13 4 .125 6l.008 3.313C22 55 22 55 21 56c-1.998.099-4 .13-6 .125l-3.313.008C9 56 9 56 8 55c-.099-1.998-.13-4-.125-6l-.008-3.313c.179-3.613.207-3.641 3.82-3.82ZM10 46c-.333 3-.333 3 0 6 1.885 2.316 1.885 2.316 5 2.25 3.115.066 3.115.066 5-2.25.333-3 .333-3 0-6-1.885-2.316-1.885-2.316-5-2.25-3.115-.066-3.115-.066-5 2.25Z"/><path fill="#74F" d="m45.688 24.867 3.312.008 3.313-.008C55 25 55 25 56 26c.099 1.998.13 4 .125 6l.008 3.313C56 38 56 38 55 39c-1.998.099-4 .13-6 .125l-3.313.008C43 39 43 39 42 38c-.099-1.998-.13-4-.125-6l-.008-3.313c.179-3.613.207-3.641 3.82-3.82ZM44 29c-.333 3-.333 3 0 6 1.885 2.316 1.885 2.316 5 2.25 3.115.066 3.115.066 5-2.25.333-3 .333-3 0-6-1.885-2.316-1.885-2.316-5-2.25-3.115-.066-3.115-.066-5 2.25ZM28.688 24.867l3.312.008 3.313-.008C38 25 38 25 39 26c.099 1.998.13 4 .125 6l.008 3.313C39 38 39 38 38 39c-1.998.099-4 .13-6 .125l-3.313.008C26 39 26 39 25 38c-.099-1.998-.13-4-.125-6l-.008-3.313c.179-3.613.207-3.641 3.82-3.82ZM27 29c-.333 3-.333 3 0 6 1.885 2.316 1.885 2.316 5 2.25 3.115.066 3.115.066 5-2.25.333-3 .333-3 0-6-1.885-2.316-1.885-2.316-5-2.25-3.115-.066-3.115-.066-5 2.25ZM11.688 24.867l3.312.008 3.313-.008C21 25 21 25 22 26c.099 1.998.13 4 .125 6l.008 3.313C22 38 22 38 21 39c-1.998.099-4 .13-6 .125l-3.313.008C9 39 9 39 8 38c-.099-1.998-.13-4-.125-6l-.008-3.313c.179-3.613.207-3.641 3.82-3.82ZM10 29c-.333 3-.333 3 0 6 1.885 2.316 1.885 2.316 5 2.25 3.115.066 3.115.066 5-2.25.333-3 .333-3 0-6-1.885-2.316-1.885-2.316-5-2.25-3.115-.066-3.115-.066-5 2.25Z"/><path fill="#3D5DFF" d="M45.688 7.867 49 7.875l3.313-.008C55 8 55 8 56 9c.099 1.998.13 4 .125 6l.008 3.313C56 21 56 21 55 22c-1.998.099-4 .13-6 .125l-3.313.008C43 22 43 22 42 21c-.099-1.998-.13-4-.125-6l-.008-3.313c.179-3.613.207-3.641 3.82-3.82ZM44 12c-.333 3-.333 3 0 6 1.885 2.316 1.885 2.316 5 2.25 3.115.066 3.115.066 5-2.25.333-3 .333-3 0-6-1.885-2.316-1.885-2.316-5-2.25-3.115-.066-3.115-.066-5 2.25ZM28.688 7.867 32 7.875l3.313-.008C38 8 38 8 39 9c.099 1.998.13 4 .125 6l.008 3.313C39 21 39 21 38 22c-1.998.099-4 .13-6 .125l-3.313.008C26 22 26 22 25 21c-.099-1.998-.13-4-.125-6l-.008-3.313c.179-3.613.207-3.641 3.82-3.82ZM27 12c-.333 3-.333 3 0 6 1.885 2.316 1.885 2.316 5 2.25 3.115.066 3.115.066 5-2.25.333-3 .333-3 0-6-1.885-2.316-1.885-2.316-5-2.25-3.115-.066-3.115-.066-5 2.25ZM11.688 7.867 15 7.875l3.313-.008C21 8 21 8 22 9c.099 1.998.13 4 .125 6l.008 3.313C22 21 22 21 21 22c-1.998.099-4 .13-6 .125l-3.313.008C9 22 9 22 8 21c-.099-1.998-.13-4-.125-6l-.008-3.313c.179-3.613.207-3.641 3.82-3.82ZM10 12c-.333 3-.333 3 0 6 1.885 2.316 1.885 2.316 5 2.25 3.115.066 3.115.066 5-2.25.333-3 .333-3 0-6-1.885-2.316-1.885-2.316-5-2.25-3.115-.066-3.115-.066-5 2.25Z"/><path fill="#A8B9FF" d="M46 46h6v6h-6v-6ZM29 46h6v6h-6v-6ZM12 46h6v6h-6v-6Z"/><path fill="#B1B7FF" d="M46 29h6v6h-6v-6ZM29 29h6v6h-6v-6ZM12 29h6v6h-6v-6Z"/><path fill="#ADB7FF" d="M46 12h6v6h-6v-6ZM29 12h6v6h-6v-6ZM12 12h6v6h-6v-6Z"/></svg>